<svg xmlns="http://www.w3.org/2000/svg" width="105.111" height="173.445" viewBox="0 0 105.111 173.445"><defs><style>.a{fill:rgba(255,255,255,0.5);}</style></defs><path class="a" d="M49.253,173.445c-1.381,0-2.635-1.829-3.2-4.683a16.071,16.071,0,0,1,.6-8.483L76.069,86.723,46.647,13.15a16.115,16.115,0,0,1-.6-8.483C46.619,1.829,47.873,0,49.253,0H70.274c.995,0,1.934.946,2.607,2.617l31.532,78.839a15.928,15.928,0,0,1,0,10.549L72.881,170.843c-.673,1.64-1.612,2.6-2.607,2.6Zm-45.546,0c-1.38,0-2.635-1.829-3.2-4.683a16.071,16.071,0,0,1,.6-8.483L30.523,86.723,1.1,13.15a16.117,16.117,0,0,1-.6-8.483C1.073,1.829,2.327,0,3.707,0H24.728c1,0,1.934.946,2.607,2.617L58.867,81.456a15.928,15.928,0,0,1,0,10.549L27.335,170.843c-.673,1.64-1.611,2.6-2.607,2.6Z" transform="translate(-0.2)"/></svg>