<svg xmlns="http://www.w3.org/2000/svg" width="38.652" height="38.848" viewBox="0 0 38.652 38.848"><defs><style>.a{fill:#ebca28;}</style></defs><path class="a" d="M864.148,2688.947h0l-7.862-7.427.823-13.123-1.939-11.5,9.75,4.157,4.028-.962,3.839-.917,4.029-.962,6.8-8.11,3.5,11.129,6.7,11.325-3.63,10.173-11.1,2.651-3.84.918-11.1,2.652Zm5.863-8.137a.77.77,0,0,0-.737.625.984.984,0,0,0,.578,1.144l3.137,1.127a.708.708,0,0,0,.538-.019.716.716,0,0,0,.49-.227l2.057-2.182,2.826,1.016a.72.72,0,0,0,.539-.02.711.711,0,0,0,.489-.227l2.283-2.421a.983.983,0,0,0,0-1.281.823.823,0,0,0-.619-.3.722.722,0,0,0-.529.232L879,2680.458l-2.826-1.015a.756.756,0,0,0-.254-.045.71.71,0,0,0-.286.06.728.728,0,0,0-.488.23l-2.057,2.181-2.826-1.015A.75.75,0,0,0,870.012,2680.81Zm-3.017-10.747a2.008,2.008,0,0,0-.467.055l-.219.052a1.993,1.993,0,0,0-1.249.913,2.036,2.036,0,0,0-.238,1.54l1.151,4.786a2.024,2.024,0,0,0,2.441,1.514l.219-.052a1.993,1.993,0,0,0,1.244-.9,2.033,2.033,0,0,0,.243-1.548l-1.151-4.786A2.03,2.03,0,0,0,866.995,2670.063Zm13.442-3.21a2.012,2.012,0,0,0-.468.055l-.223.053a2,2,0,0,0-1.248.907,2.038,2.038,0,0,0-.244,1.553l1.148,4.775a2.039,2.039,0,0,0,1.981,1.574,2,2,0,0,0,.468-.056l.223-.053a2,2,0,0,0,1.252-.915,2.041,2.041,0,0,0,.239-1.544l-1.148-4.774A2.037,2.037,0,0,0,880.437,2666.853Z" transform="translate(-855.171 -2650.1)"/></svg>