<svg xmlns="http://www.w3.org/2000/svg" xmlns:xlink="http://www.w3.org/1999/xlink" width="132" height="132" viewBox="0 0 132 132">
  <defs>
    <clipPath id="clip-path">
      <path id="item_frame" d="M12.292,0H115.459a12.282,12.282,0,0,1,12.282,12.282l.251,106.907c.238,5.187-1.82,9.389-8.431,9.772l-111.438.02c-3.857.1-8.854-3.058-8.485-10.5L.01,12.282A12.282,12.282,0,0,1,12.292,0Z" transform="translate(0.043)" fill="#eea73d"/>
    </clipPath>
  </defs>
  <g id="photo_frame" transform="translate(-600.5 -384.019)">
    <g id="person_frame" transform="translate(600.5 384.019)" fill="#fff" stroke="#d9d6be" stroke-width="2">
      <rect width="132" height="132" rx="10" stroke="none"/>
      <rect x="1" y="1" width="130" height="130" rx="9" fill="none"/>
    </g>
    <g id="frame" transform="translate(602.458 385.019)" clip-path="url(#clip-path)">
      <path id="Path_73" data-name="Path 73" d="M26.824,308.478,195.71,229.117,181.982,359.4l-153.6,5.945Z" transform="translate(-38.839 -203.225)" fill="#e8e8e8"/>
    </g>
  </g>
</svg>
