<svg xmlns="http://www.w3.org/2000/svg" width="73.368" height="73.368" viewBox="0 0 73.368 73.368">
  <g id="frame" transform="translate(2 2)" fill="rgba(0,0,0,0.8)">
    <path d="M 63.58748245239258 70.3681640625 L 5.78068208694458 70.3681640625 C 2.041801929473877 70.3681640625 -0.9999979734420776 67.32636260986328 -0.9999979734420776 63.58748245239258 L -0.9999979734420776 5.78068208694458 C -0.9999979734420776 2.041801929473877 2.041801929473877 -0.9999979734420776 5.78068208694458 -0.9999979734420776 L 63.58748245239258 -0.9999979734420776 C 67.32636260986328 -0.9999979734420776 70.3681640625 2.041801929473877 70.3681640625 5.78068208694458 L 70.3681640625 63.58748245239258 C 70.3681640625 67.32636260986328 67.32636260986328 70.3681640625 63.58748245239258 70.3681640625 Z" stroke="none"/>
    <path d="M 5.780681610107422 -7.62939453125e-06 C 2.588096618652344 -7.62939453125e-06 -7.62939453125e-06 2.588096618652344 -7.62939453125e-06 5.780681610107422 L -7.62939453125e-06 63.58748245239258 C -7.62939453125e-06 66.78006744384766 2.588096618652344 69.36815643310547 5.780681610107422 69.36815643310547 L 63.58748245239258 69.36815643310547 C 66.78006744384766 69.36815643310547 69.36815643310547 66.78006744384766 69.36815643310547 63.58748245239258 L 69.36815643310547 5.780681610107422 C 69.36815643310547 2.588096618652344 66.78006744384766 -7.62939453125e-06 63.58748245239258 -7.62939453125e-06 L 5.780681610107422 -7.62939453125e-06 M 5.780681610107422 -2.000007629394531 L 63.58748245239258 -2.000007629394531 C 67.87776184082031 -2.000007629394531 71.36815643310547 1.490394592285156 71.36815643310547 5.780681610107422 L 71.36815643310547 63.58748245239258 C 71.36815643310547 67.87776184082031 67.87776184082031 71.36815643310547 63.58748245239258 71.36815643310547 L 5.780681610107422 71.36815643310547 C 1.490394592285156 71.36815643310547 -2.000007629394531 67.87776184082031 -2.000007629394531 63.58748245239258 L -2.000007629394531 5.780681610107422 C -2.000007629394531 1.490394592285156 1.490394592285156 -2.000007629394531 5.780681610107422 -2.000007629394531 Z" stroke="none" fill="#d9d6be"/>
  </g>
</svg>
