<svg xmlns="http://www.w3.org/2000/svg" width="38.303" height="31" viewBox="0 0 38.303 31"><defs><style>.a{fill:#2ceaec;}</style></defs><path class="a" d="M18.075,31a1.28,1.28,0,0,1-1.167-.837,1.521,1.521,0,0,1,.217-1.516L27.847,15.5,17.125,2.35A1.525,1.525,0,0,1,16.908.834,1.281,1.281,0,0,1,18.075,0h7.66a1.228,1.228,0,0,1,.95.468l11.49,14.091a1.521,1.521,0,0,1,0,1.885L26.685,30.535a1.243,1.243,0,0,1-.95.465Zm-16.6,0a1.28,1.28,0,0,1-1.167-.837,1.521,1.521,0,0,1,.217-1.516L11.25,15.5.528,2.35A1.525,1.525,0,0,1,.311.834,1.281,1.281,0,0,1,1.478,0h7.66a1.228,1.228,0,0,1,.95.468l11.49,14.091a1.521,1.521,0,0,1,0,1.885L10.088,30.535a1.243,1.243,0,0,1-.95.465Z" transform="translate(-0.2)"/></svg>