<svg xmlns="http://www.w3.org/2000/svg" width="25.607" height="25.588" viewBox="0 0 25.607 25.588"><defs><style>.a{fill:#f2ba0f;}</style></defs><path class="a" d="M26.735,106c0-1.453-.032-4.36,1.846-4.521a72.257,72.257,0,0,1,7.315-.549,60.067,60.067,0,0,1,7.348.549c2.037.258,2.005,2.713,2.005,4.521Zm9.224-8.081a72.309,72.309,0,0,0-7.316.549l-3.372-9.5a2.26,2.26,0,0,1-2.1-2.294,2.34,2.34,0,0,1,2.29-2.326,2.314,2.314,0,0,1,2.259,2.326,2.49,2.49,0,0,1-.541,1.389l3.276,3.779,1.369-6.718a2.174,2.174,0,0,1-1.781-2.261,2.418,2.418,0,1,1,4.834,0,2.218,2.218,0,0,1-1.114,1.97l2.259,6.654h.064l2.163-6.654a2.507,2.507,0,0,1-.954-1.97,2.418,2.418,0,1,1,4.834,0,2.266,2.266,0,0,1-1.654,2.261l1.113,6.718L44.74,88.1a2.182,2.182,0,0,1-.509-1.421,2.307,2.307,0,0,1,2.259-2.294A2.319,2.319,0,0,1,46.744,89l-3.435,9.464A60.548,60.548,0,0,0,35.96,97.918Z" transform="translate(-23.173 -80.411)"/></svg>