<svg xmlns="http://www.w3.org/2000/svg" xmlns:xlink="http://www.w3.org/1999/xlink" width="372.959" height="78.281" viewBox="0 0 372.959 78.281">
  <defs>
    <filter id="frame1" x="0" y="0" width="372.959" height="78.281" filterUnits="userSpaceOnUse">
      <feOffset dy="3" input="SourceAlpha"/>
      <feGaussianBlur stdDeviation="3" result="blur"/>
      <feFlood flood-color="#919191"/>
      <feComposite operator="in" in2="blur"/>
      <feComposite in="SourceGraphic"/>
    </filter>
  </defs>
  <g transform="matrix(1, 0, 0, 1, 0, 0)" filter="url(#frame1)">
    <g id="frame1-2" data-name="frame1" transform="translate(18.42 6)" fill="rgba(0,0,0,0.8)">
      <path d="M 326.1169128417969 59.28074264526367 L -0.9782617092132568 59.06101608276367 C -5.056432723999023 59.06101608276367 -8.37861442565918 55.07579803466797 -8.421430587768555 50.15729522705078 L -0.4861707985401154 10.19478988647461 L -0.4843980669975281 10.1857442855835 L -0.4827617108821869 10.17669868469238 C 0.09219283610582352 6.973381042480469 0.9765564799308777 4.680971622467041 2.220829248428345 3.168562650680542 C 3.421329259872437 1.709335446357727 4.976738452911377 1.000017166137695 6.975874423980713 1.000017166137695 L 337.0942077636719 1.000017166137695 C 341.1681823730469 1.000017166137695 344.4881591796875 4.978385925292969 344.5365600585938 9.891055107116699 L 335.4609985351562 50.13642501831055 L 335.4570007324219 50.15419769287109 L 335.4536437988281 50.1721076965332 C 334.9051818847656 53.09683609008789 333.6722717285156 55.48569869995117 331.8882751464844 57.08051681518555 C 330.2781677246094 58.51984024047852 328.2823181152344 59.2806510925293 326.1165771484375 59.28074264526367 L 326.1169128417969 59.28074264526367 Z" stroke="none"/>
      <path d="M 6.975860595703125 2.000019073486328 C 5.271087646484375 2.000019073486328 4.00555419921875 2.573200225830078 2.9930419921875 3.803882598876953 C 1.8760986328125 5.161518096923828 1.037841796875 7.365062713623047 0.50152587890625 10.35333633422852 L 0.494659423828125 10.38956451416016 L -7.420166015625 50.24885940551758 C -7.38092041015625 52.37721252441406 -6.6744384765625 54.35703659057617 -5.420806884765625 55.84188079833984 C -4.21258544921875 57.27292633056641 -2.6351318359375 58.06101608276367 -0.977569580078125 58.06101608276367 L 326.1161804199219 58.28074645996094 C 328.0323181152344 58.28074645996094 329.7977905273438 57.60787963867188 331.2217712402344 56.3349723815918 C 332.8398742675781 54.88851928710938 333.9633178710938 52.69369888305664 334.4707946777344 49.98778915405273 L 334.4855041503906 49.91647338867188 L 343.5348205566406 9.787220001220703 C 343.490478515625 7.668464660644531 342.78466796875 5.698078155517578 341.5360107421875 4.219154357910156 C 340.3278198242188 2.788108825683594 338.7503356933594 2.000019073486328 337.0942077636719 2.000019073486328 L 6.975860595703125 2.000019073486328 M 6.975860595703125 1.9073486328125e-05 L 337.0942077636719 1.9073486328125e-05 C 341.7570495605469 1.9073486328125e-05 345.5370483398438 4.477153778076172 345.5370483398438 10.00001907348633 L 336.4365234375 50.35642623901367 C 335.1826171875 57.04297256469727 330.779052734375 60.28074264526367 326.1161804199219 60.28074264526367 L -0.97894287109375 60.06101608276367 C -5.641815185546875 60.06101608276367 -9.421905517578125 55.58388137817383 -9.421905517578125 50.06101608276367 L -1.467041015625 10.00001907348633 C -0.286407470703125 3.421882629394531 2.313018798828125 1.9073486328125e-05 6.975860595703125 1.9073486328125e-05 Z" stroke="none" fill="#fff"/>
    </g>
  </g>
</svg>
