<svg xmlns="http://www.w3.org/2000/svg" xmlns:xlink="http://www.w3.org/1999/xlink" width="438.422" height="78.061" viewBox="0 0 438.422 78.061">
  <defs>
    <filter id="frame2" x="0" y="0" width="438.422" height="78.061" filterUnits="userSpaceOnUse">
      <feOffset dy="3" input="SourceAlpha"/>
      <feGaussianBlur stdDeviation="3" result="blur"/>
      <feFlood flood-color="#919191"/>
      <feComposite operator="in" in2="blur"/>
      <feComposite in="SourceGraphic"/>
    </filter>
  </defs>
  <g transform="matrix(1, 0, 0, 1, 0, 0)" filter="url(#frame2)">
    <g id="frame2-2" data-name="frame2" transform="translate(18.42 6)" fill="rgba(0,0,0,0.8)">
      <path d="M 0.5781151056289673 59.06104278564453 C -4.346957683563232 59.06104278564453 -8.360711097717285 55.08499908447266 -8.421184539794922 50.17400360107422 L 0.9734309315681458 10.22893905639648 L 0.9759045839309692 10.21846485137939 L 0.9781677722930908 10.2079381942749 C 1.655430912971497 7.02199125289917 2.699378252029419 4.739885807037354 4.169536113739014 3.231096506118774 C 5.63248348236084 1.729780793190002 7.539641380310059 0.999991238117218 10.00000953674316 0.999991238117218 L 401 0.999991238117218 C 405.962646484375 0.999991238117218 410 5.037359714508057 410 9.999991416931152 L 410 49.99999237060547 C 410 54.96262359619141 405.962646484375 58.99999237060547 401 58.99999237060547 L 0.5779572129249573 59.06104278564453 L 0.5781151056289673 59.06104278564453 Z" stroke="none"/>
      <path d="M 10 1.999992370605469 C 7.82342529296875 1.999992370605469 6.15057373046875 2.630992889404297 4.8857421875 3.928989410400391 C 3.569915771484375 5.27935791015625 2.584259033203125 7.461887359619141 1.956268310546875 10.41588592529297 L 1.9468994140625 10.4578857421875 L -7.418914794921875 50.280517578125 C -7.30206298828125 54.59052276611328 -3.759613037109375 58.06104278564453 0.577789306640625 58.06104278564453 L 401 57.99999237060547 C 405.4112243652344 57.99999237060547 409 54.41120147705078 409 49.99999237060547 L 409 9.999992370605469 C 409 5.588779449462891 405.4112243652344 1.999992370605469 401 1.999992370605469 L 10 1.999992370605469 M 10 -7.62939453125e-06 L 401 -7.62939453125e-06 C 406.5228576660156 -7.62939453125e-06 411 4.477149963378906 411 9.999992370605469 L 411 49.99999237060547 C 411 55.52283477783203 406.5228576660156 59.99999237060547 401 59.99999237060547 L 0.578125 60.06104278564453 C -4.944732666015625 60.06104278564453 -9.421875 55.58388519287109 -9.421875 50.06104278564453 L 0 9.999992370605469 C 1.3984375 3.421886444091797 4.47711181640625 -7.62939453125e-06 10 -7.62939453125e-06 Z" stroke="none" fill="#fff"/>
    </g>
  </g>
</svg>
